HIERARCHY
ROOT Hips
{
	OFFSET -3.958830 18.904000 13.208200
	CHANNELS 6 Xposition Yposition Zposition Zrotation Yrotation Xrotation 
	JOINT LHipJoint
	{
		OFFSET 0.000000 0.000000 0.000000
		CHANNELS 3 Zrotation Yrotation Xrotation
		JOINT LeftUpLeg
		{
			OFFSET 1.800000 -1.400000 0.085000
			CHANNELS 3 Zrotation Yrotation Xrotation
			JOINT LeftLeg
			{
				OFFSET 2.215000 -6.000000 0.000000
				CHANNELS 3 Zrotation Yrotation Xrotation
				JOINT LeftFoot
				{
					OFFSET 2.500000 -6.900000 0.000000
					CHANNELS 3 Zrotation Yrotation Xrotation
					JOINT LeftToeBase
					{
						OFFSET 0.200000 -0.500000 1.950000
						CHANNELS 3 Zrotation Yrotation Xrotation
						End Site
						{
							OFFSET 0.000000 0.000000 0.000000
						}
					}
				}
			}
		}
	}
	JOINT RHipJoint
	{
		OFFSET 0.000000 0.000000 0.000000
		CHANNELS 3 Zrotation Yrotation Xrotation
		JOINT RightUpLeg
		{
			OFFSET -1.800000 -1.400000 0.085000
			CHANNELS 3 Zrotation Yrotation Xrotation
			JOINT RightLeg
			{
				OFFSET -2.215000 -6.000000 0.000000
				CHANNELS 3 Zrotation Yrotation Xrotation
				JOINT RightFoot
				{
					OFFSET -2.500000 -6.900000 0.000000
					CHANNELS 3 Zrotation Yrotation Xrotation
					JOINT RightToeBase
					{
						OFFSET -0.200000 -0.500000 1.950000
						CHANNELS 3 Zrotation Yrotation Xrotation
						End Site
						{
							OFFSET 0.000000 0.000000 0.000000
						}
					}
				}
			}
		}
	}
	JOINT LowerBack
	{
		OFFSET 0.000000 0.000000 0.000000
		CHANNELS 3 Zrotation Yrotation Xrotation
		JOINT Spine
		{
			OFFSET -0.087000 1.940000 -0.288900
			CHANNELS 3 Zrotation Yrotation Xrotation
			JOINT Spine1
			{
				OFFSET 0.000000 1.950000 0.060000
				CHANNELS 3 Zrotation Yrotation Xrotation
				JOINT Neck
				{
					OFFSET 0.000000 0.000000 0.000000
					CHANNELS 3 Zrotation Yrotation Xrotation
					JOINT Neck1
					{
						OFFSET 0.000000 1.600000 0.340000
						CHANNELS 3 Zrotation Yrotation Xrotation
						JOINT Head
						{
							OFFSET 0.000000 1.667000 -0.240000
							CHANNELS 3 Zrotation Yrotation Xrotation
							End Site
							{
								OFFSET 0.000000 0.000000 0.000000
							}
						}
					}
				}
				JOINT LeftShoulder
				{
					OFFSET 0.000000 0.000000 0.000000
					CHANNELS 3 Zrotation Yrotation Xrotation
					JOINT LeftArm
					{
						OFFSET 2.700000 1.550000 -0.730000
						CHANNELS 3 Zrotation Yrotation Xrotation
						JOINT LeftForeArm
						{
							OFFSET 5.450000 0.000000 0.000000
							CHANNELS 3 Zrotation Yrotation Xrotation
							JOINT LeftHand
							{
								OFFSET 3.450000 0.000000 0.000000
								CHANNELS 3 Zrotation Yrotation Xrotation
								JOINT LeftHandIndex1
								{
									OFFSET 0.750000 0.000000 0.000000
									CHANNELS 3 Zrotation Yrotation Xrotation
									End Site
									{
										OFFSET 0.000000 0.000000 0.000000
									}
								}
							}
						}
					}
				}
				JOINT RightShoulder
				{
					OFFSET 0.000000 0.000000 0.000000
					CHANNELS 3 Zrotation Yrotation Xrotation
					JOINT RightArm
					{
						OFFSET -2.700000 1.550000 -0.730000
						CHANNELS 3 Zrotation Yrotation Xrotation
						JOINT RightForeArm
						{
							OFFSET -5.450000 0.000000 0.000000
							CHANNELS 3 Zrotation Yrotation Xrotation
							JOINT RightHand
							{
								OFFSET -3.450000 0.000000 0.000000
								CHANNELS 3 Zrotation Yrotation Xrotation
								JOINT RightHandIndex1
								{
									OFFSET -0.750000 0.000000 0.000000
									CHANNELS 3 Zrotation Yrotation Xrotation
									End Site
									{
										OFFSET 0.000000 0.000000 0.000000
									}
								}
							}
						}
					}
				}
			}
		}
	}
}
MOTION
Frames: 6
Frame Time: 0.016667
-1.017540 16.533130 3.847340 1.264622 -13.592039 -5.416949 -16.011933 14.003077 3.416857 -0.579245 2.269245 12.789442 -11.375171 8.278693 9.367718 0.226187 6.225690 2.456736 0.561910 0.429050 0.469930 17.773294 -8.425235 3.342861 9.631673 3.859953 -23.274727 7.797009 -1.964456 0.072815 -0.018978 -1.367944 3.875582 0.344620 0.006530 0.053000 -1.559056 -6.464484 -7.966801 -1.339735 -5.549407 7.501749 3.421114 -5.280142 13.376758 -2.018088 -5.694015 -13.525522 -21.495511 14.874162 41.480913 2.475620 9.078950 -11.209740 -30.027771 -23.719974 6.545472 -51.096104 -36.258015 12.428855 -3.404723 -18.341124 -0.110713 -3.546554 3.018100 0.474210 -0.033860 0.110590 0.114260 34.818180 22.784931 10.977535 38.637227 4.176726 -5.664969 -13.945373 14.030676 -2.415238 2.268006 -1.400192 -0.173720 0.253110 -0.111540 -0.235200 
-1.013690 16.530610 3.981340 1.142551 -14.184376 -5.725983 -15.994717 14.026821 3.423279 -0.702858 2.228206 13.102327 -11.283160 8.517681 10.591210 0.244759 6.321283 2.419225 0.566780 0.419630 0.485520 17.782076 -8.473041 3.311974 9.494392 3.796101 -22.821631 7.813359 -2.139651 1.251507 -0.029412 -1.391071 3.866524 0.332840 -0.011030 0.054220 -1.585173 -6.448428 -7.945530 -0.845084 -5.429439 7.530189 3.385873 -5.143900 13.252156 -1.857738 -5.764569 -13.515868 -22.078264 14.969421 41.864433 2.379930 8.953410 -11.424780 -30.314011 -23.392369 6.569034 -52.231185 -35.825766 12.120262 -5.177798 -21.214057 0.184899 -3.492892 3.042847 0.494450 -0.050060 0.121610 0.109080 34.777486 22.472563 11.070813 39.162757 3.204128 -6.263708 -14.323298 15.329561 -2.598628 2.251737 -1.399720 -0.171320 0.247320 -0.114220 -0.244710 
-1.010430 16.529530 4.118220 1.205871 -14.693456 -6.027641 -15.991693 14.063442 3.424849 -0.943329 2.170280 13.112265 -11.280109 8.861083 12.367954 0.279183 6.439563 2.373640 0.556530 0.401720 0.483370 17.773798 -8.535375 3.265935 9.086341 3.700493 -22.484091 7.890657 -2.361855 2.734243 -0.028624 -1.437266 3.851606 0.314300 -0.021330 0.056330 -1.562296 -6.437450 -7.908343 -0.757289 -5.187980 7.425643 3.805291 -4.944447 13.121711 -1.803496 -5.821247 -13.464680 -22.487698 14.786286 42.160994 2.041680 8.730690 -11.078110 -29.966285 -22.965247 6.470359 -53.762965 -35.347260 12.056810 -7.552298 -24.298834 0.706476 -3.454737 3.079960 0.494070 -0.055360 0.121750 0.102270 34.362672 22.124823 11.152960 39.768619 2.147498 -6.860244 -14.769939 16.649761 -2.804700 2.242166 -1.409949 -0.163790 0.231230 -0.112100 -0.245870 
-1.016850 16.526290 4.257520 1.599200 -15.020225 -6.271699 -16.016295 14.104820 3.425556 -1.413278 2.174066 12.937538 -11.100564 9.143969 14.143641 0.312849 6.546817 2.339097 0.530290 0.367900 0.464590 17.741402 -8.598507 3.194852 8.347840 3.548768 -22.269055 7.915197 -2.582616 4.194809 -0.017067 -1.502737 3.833520 0.290860 -0.014330 0.060480 -1.464632 -6.446712 -7.833778 -1.354984 -4.836114 7.044587 4.554232 -4.628121 12.606604 -1.877846 -5.866093 -12.981483 -22.594863 14.420814 42.145968 1.485830 8.548270 -10.270890 -29.296098 -21.711471 5.923521 -55.588699 -34.789103 12.658254 -11.152148 -27.125410 1.722777 -3.455141 3.112024 0.480090 -0.045080 0.107720 0.098230 33.921788 21.050005 10.953354 40.389513 1.124080 -7.294094 -14.763598 17.814035 -2.916453 2.234918 -1.418836 -0.162080 0.214820 -0.102320 -0.242890 
-1.024590 16.526500 4.392840 1.828301 -15.423640 -6.588355 -16.033136 14.145448 3.425833 -1.541403 2.040029 12.696570 -11.321408 9.587380 16.108453 0.356172 6.717032 2.282386 0.508880 0.342400 0.455770 17.714245 -8.662672 3.135415 7.851586 3.445457 -21.904670 7.762118 -2.798917 5.766077 -0.014333 -1.565867 3.815008 0.272310 -0.016920 0.054480 -1.381713 -6.448848 -7.786443 -1.833335 -4.502847 6.939929 5.394863 -4.324667 12.066459 -1.950090 -5.957760 -12.569634 -22.885290 14.194728 42.292050 0.955130 8.455800 -9.890060 -28.635300 -20.358959 5.450519 -57.001815 -34.187170 13.088639 -15.307496 -30.409026 3.108770 -3.452007 3.130376 0.476640 -0.046140 0.102940 0.092010 33.507091 19.961352 10.722207 40.695245 0.223034 -7.724420 -14.410547 19.089507 -2.975755 2.229141 -1.413327 -0.164860 0.208920 -0.097590 -0.243540 
-1.032000 16.528580 4.524920 1.747834 -15.721911 -6.841943 -16.020109 14.169087 3.412820 -1.196191 1.728906 12.356005 -11.934157 10.185615 18.126988 0.400869 6.956518 2.199320 0.491990 0.319200 0.444210 17.715071 -8.729737 3.091563 7.522778 3.412323 -21.513040 7.726857 -3.053481 7.438342 -0.015210 -1.661716 3.783267 0.258590 -0.015790 0.052280 -1.387903 -6.410901 -7.748241 -1.684388 -4.220599 6.981758 6.039353 -4.074264 11.643415 -2.112755 -6.058789 -12.249947 -23.126076 13.976789 42.234969 0.688900 8.305440 -9.476640 -27.687098 -19.172774 5.051334 -57.940863 -33.857001 13.627471 -20.015308 -33.637149 4.934023 -3.462439 3.159266 0.472480 -0.043640 0.092130 0.085670 32.909427 18.967630 10.469451 41.025780 -0.544542 -8.073663 -14.111680 20.071594 -3.001375 2.220081 -1.415069 -0.167690 0.199660 -0.088790 -0.245390 
